<?xml version="1.0" encoding="UTF-8"?><svg id="a" xmlns="http://www.w3.org/2000/svg" xmlns:xlink="http://www.w3.org/1999/xlink" viewBox="0 0 974.37 216"><defs><linearGradient id="b" x1="416.77" y1="108.87" x2="966.1" y2="108.87" gradientUnits="userSpaceOnUse"><stop offset="0" stop-color="#6366f1"/><stop offset="1" stop-color="#8b5cf6"/></linearGradient></defs><path d="M492.97,209.93c-22.85,0-41.07-5.27-54.65-15.82s-20.76-25.53-21.56-44.96h34.67c.79,10.37,5.1,18.08,12.92,23.14,7.82,5.05,17.27,7.58,28.34,7.58s21.07-2.61,28.41-7.84c7.34-5.23,11.01-12.06,11.01-20.5,0-7.65-3.25-13.42-9.76-17.34-6.5-3.91-15.07-7.23-25.71-9.95l-22.28-5.8c-16.44-4.22-29.25-10.59-38.43-19.12-9.19-8.52-13.78-19.73-13.78-33.62,0-11.6,3.12-21.73,9.36-30.39,6.24-8.66,14.77-15.4,25.58-20.24,10.81-4.83,23.07-7.25,36.78-7.25s26.21,2.42,36.72,7.25c10.5,4.83,18.74,11.52,24.72,20.04,5.98,8.53,9.1,18.24,9.36,29.14h-34.15c-.88-8.35-4.64-14.85-11.27-19.51-6.64-4.66-15.27-6.99-25.91-6.99s-19.77,2.44-26.1,7.32-9.49,11.05-9.49,18.52c0,5.54,1.69,10.04,5.08,13.51,3.38,3.47,7.65,6.26,12.79,8.37s10.35,3.82,15.62,5.14l18.33,4.75c9.67,2.37,18.92,5.78,27.75,10.22,8.83,4.44,16.04,10.39,21.62,17.86,5.58,7.47,8.37,16.92,8.37,28.34s-2.95,21.64-8.83,30.39c-5.89,8.75-14.37,15.56-25.44,20.43s-24.44,7.32-40.08,7.32Z"/><path d="M640.22,209.93c-14.85,0-27.62-3.12-38.3-9.36-10.68-6.24-18.9-15.03-24.65-26.37-5.76-11.34-8.64-24.7-8.64-40.08s2.83-28.41,8.5-39.88c5.67-11.47,13.71-20.43,24.13-26.89,10.41-6.46,22.65-9.69,36.72-9.69,11.95,0,23.05,2.62,33.29,7.84,10.24,5.23,18.48,13.32,24.72,24.26,6.24,10.94,9.36,25.03,9.36,42.25v10.81h-102.57c.44,13.1,4.11,23.07,11.01,29.93,6.9,6.86,15.84,10.28,26.83,10.28,7.56,0,14.04-1.62,19.45-4.88,5.4-3.25,9.25-8,11.54-14.24l31.51,6.46c-3.52,11.87-10.79,21.42-21.82,28.67-11.03,7.25-24.72,10.88-41.07,10.88ZM602.91,119.49h69.08c-1.05-10.55-4.42-19-10.08-25.38-5.67-6.37-13.6-9.56-23.8-9.56s-18.74,3.36-24.85,10.09c-6.11,6.72-9.56,15.01-10.35,24.85Z"/><path d="M767.56,209.93c-16.96,0-30.96-3.62-41.99-10.88-11.03-7.25-17.82-17.55-20.37-30.92l32.04-6.06c3.87,14.42,14.19,21.62,30.98,21.62,8.44,0,15.14-1.69,20.11-5.08,4.96-3.38,7.45-7.58,7.45-12.59,0-8.35-6.64-13.97-19.91-16.88l-25.18-5.41c-27.6-5.98-41.4-19.73-41.4-41.26,0-9.14,2.5-17.05,7.51-23.73,5.01-6.68,11.97-11.87,20.9-15.56,8.92-3.69,19.27-5.54,31.05-5.54,16.7,0,29.9,3.47,39.62,10.42,9.71,6.94,16.06,16.13,19.05,27.55l-30.59,6.06c-1.76-5.1-4.83-9.45-9.23-13.05-4.4-3.6-10.55-5.41-18.46-5.41-7.21,0-13.27,1.6-18.19,4.81-4.92,3.21-7.38,7.32-7.38,12.33,0,4.31,1.6,7.84,4.81,10.61,3.21,2.77,8.59,4.99,16.15,6.66l25.05,5.27c27.51,5.89,41.26,19.16,41.26,39.81,0,9.32-2.68,17.51-8.04,24.59-5.36,7.08-12.81,12.61-22.35,16.61-9.54,4-20.5,6-32.89,6Z"/><path d="M871.44,120.54v86.35h-34.28V10.46h33.75v76.33c8.96-19.42,23.86-29.14,44.69-29.14,15.2,0,27.42,4.83,36.65,14.5,9.23,9.67,13.84,23.33,13.84,41v93.74h-34.41v-88.46c0-9.84-2.55-17.58-7.65-23.2-5.1-5.62-12.13-8.44-21.09-8.44s-16.68,2.95-22.61,8.83c-5.93,5.89-8.9,14.19-8.9,24.92Z"/><path d="M492.97,209.93c-22.85,0-41.07-5.27-54.65-15.82s-20.76-25.53-21.56-44.96h34.67c.79,10.37,5.1,18.08,12.92,23.14,7.82,5.05,17.27,7.58,28.34,7.58s21.07-2.61,28.41-7.84c7.34-5.23,11.01-12.06,11.01-20.5,0-7.65-3.25-13.42-9.76-17.34-6.5-3.91-15.07-7.23-25.71-9.95l-22.28-5.8c-16.44-4.22-29.25-10.59-38.43-19.12-9.19-8.52-13.78-19.73-13.78-33.62,0-11.6,3.12-21.73,9.36-30.39,6.24-8.66,14.77-15.4,25.58-20.24,10.81-4.83,23.07-7.25,36.78-7.25s26.21,2.42,36.72,7.25c10.5,4.83,18.74,11.52,24.72,20.04,5.98,8.53,9.1,18.24,9.36,29.14h-34.15c-.88-8.35-4.64-14.85-11.27-19.51-6.64-4.66-15.27-6.99-25.91-6.99s-19.77,2.44-26.1,7.32-9.49,11.05-9.49,18.52c0,5.54,1.69,10.04,5.08,13.51,3.38,3.47,7.65,6.26,12.79,8.37s10.35,3.82,15.62,5.14l18.33,4.75c9.67,2.37,18.92,5.78,27.75,10.22,8.83,4.44,16.04,10.39,21.62,17.86,5.58,7.47,8.37,16.92,8.37,28.34s-2.95,21.64-8.83,30.39c-5.89,8.75-14.37,15.56-25.44,20.43s-24.44,7.32-40.08,7.32Z" fill="url(#b)"/><path d="M640.22,209.93c-14.85,0-27.62-3.12-38.3-9.36-10.68-6.24-18.9-15.03-24.65-26.37-5.76-11.34-8.64-24.7-8.64-40.08s2.83-28.41,8.5-39.88c5.67-11.47,13.71-20.43,24.13-26.89,10.41-6.46,22.65-9.69,36.72-9.69,11.95,0,23.05,2.62,33.29,7.84,10.24,5.23,18.48,13.32,24.72,24.26,6.24,10.94,9.36,25.03,9.36,42.25v10.81h-102.57c.44,13.1,4.11,23.07,11.01,29.93,6.9,6.86,15.84,10.28,26.83,10.28,7.56,0,14.04-1.62,19.45-4.88,5.4-3.25,9.25-8,11.54-14.24l31.51,6.46c-3.52,11.87-10.79,21.42-21.82,28.67-11.03,7.25-24.72,10.88-41.07,10.88ZM602.91,119.49h69.08c-1.05-10.55-4.42-19-10.08-25.38-5.67-6.37-13.6-9.56-23.8-9.56s-18.74,3.36-24.85,10.09c-6.11,6.72-9.56,15.01-10.35,24.85Z" fill="url(#b)"/><path d="M767.56,209.93c-16.96,0-30.96-3.62-41.99-10.88-11.03-7.25-17.82-17.55-20.37-30.92l32.04-6.06c3.87,14.42,14.19,21.62,30.98,21.62,8.44,0,15.14-1.69,20.11-5.08,4.96-3.38,7.45-7.58,7.45-12.59,0-8.35-6.64-13.97-19.91-16.88l-25.18-5.41c-27.6-5.98-41.4-19.73-41.4-41.26,0-9.14,2.5-17.05,7.51-23.73,5.01-6.68,11.97-11.87,20.9-15.56,8.92-3.69,19.27-5.54,31.05-5.54,16.7,0,29.9,3.47,39.62,10.42,9.71,6.94,16.06,16.13,19.05,27.55l-30.59,6.06c-1.76-5.1-4.83-9.45-9.23-13.05-4.4-3.6-10.55-5.41-18.46-5.41-7.21,0-13.27,1.6-18.19,4.81-4.92,3.21-7.38,7.32-7.38,12.33,0,4.31,1.6,7.84,4.81,10.61,3.21,2.77,8.59,4.99,16.15,6.66l25.05,5.27c27.51,5.89,41.26,19.16,41.26,39.81,0,9.32-2.68,17.51-8.04,24.59-5.36,7.08-12.81,12.61-22.35,16.61-9.54,4-20.5,6-32.89,6Z" fill="url(#b)"/><path d="M871.44,120.54v86.35h-34.28V10.46h33.75v76.33c8.96-19.42,23.86-29.14,44.69-29.14,15.2,0,27.42,4.83,36.65,14.5,9.23,9.67,13.84,23.33,13.84,41v93.74h-34.41v-88.46c0-9.84-2.55-17.58-7.65-23.2-5.1-5.62-12.13-8.44-21.09-8.44s-16.68,2.95-22.61,8.83c-5.93,5.89-8.9,14.19-8.9,24.92Z" fill="url(#b)"/><path d="M98.74,209.53c-17.23,0-32.61-4-46.14-12-13.54-8-24.21-19.51-32.04-34.54-7.82-15.03-11.73-33.09-11.73-54.18s3.93-39.31,11.8-54.38c7.86-15.07,18.57-26.61,32.1-34.61,13.53-8,28.87-12,46.01-12,14.32,0,27.36,2.68,39.09,8.04,11.73,5.36,21.42,13.12,29.07,23.27s12.52,22.39,14.63,36.72h-35.46c-2.2-11.6-7.6-20.59-16.22-26.96-8.61-6.37-18.81-9.56-30.59-9.56-16.08,0-29.29,6-39.62,18-10.33,12-15.49,29.16-15.49,51.48s5.19,39.77,15.56,51.55c10.37,11.78,23.51,17.67,39.42,17.67,11.78,0,21.99-3.18,30.65-9.56,8.66-6.37,14.08-15.36,16.28-26.96h35.6c-1.85,12.57-6.37,23.99-13.58,34.28-7.21,10.28-16.7,18.48-28.48,24.59-11.78,6.11-25.4,9.16-40.87,9.16Z" fill="#e4e4e7"/><path d="M233.81,209.93c-9.32,0-17.71-1.69-25.18-5.08-7.47-3.38-13.36-8.37-17.67-14.96-4.31-6.59-6.46-14.72-6.46-24.39,0-11.07,2.7-19.66,8.11-25.77,5.41-6.11,12.39-10.55,20.96-13.32s17.6-4.63,27.09-5.6c12.83-1.4,22.1-2.7,27.82-3.89,5.71-1.19,8.57-4.33,8.57-9.43v-.66c0-7.21-2.2-12.81-6.59-16.81-4.4-4-10.77-6-19.12-6s-15.47,1.89-20.57,5.67c-5.1,3.78-8.53,8.09-10.28,12.92l-31.77-6.46c4.31-13.01,12.11-22.68,23.4-29,11.29-6.33,24.32-9.49,39.09-9.49,6.94,0,13.95.81,21.03,2.44,7.07,1.63,13.56,4.35,19.45,8.17,5.89,3.82,10.63,9.01,14.24,15.56,3.6,6.55,5.41,14.75,5.41,24.59v98.48h-32.83v-20.3h-1.32c-3.25,6.33-8.44,11.8-15.56,16.41s-16.39,6.92-27.82,6.92ZM242.64,184.48c10.55,0,18.96-3.03,25.25-9.1,6.28-6.06,9.43-13.18,9.43-21.36v-17.4c-1.58,1.23-4.4,2.31-8.44,3.23-4.04.92-8.33,1.71-12.85,2.37-4.53.66-8.29,1.21-11.27,1.65-7.73,1.05-14.17,3.16-19.31,6.33s-7.71,8.13-7.71,14.9c0,6.33,2.33,11.14,6.99,14.44,4.66,3.3,10.63,4.94,17.93,4.94Z" fill="#e4e4e7"/><path d="M363.36,10.46v196.44h-34.28V10.46h34.28Z" fill="#e4e4e7"/><path d="M414.58,10.46v196.44h-34.28V10.46h34.28Z" fill="#e4e4e7"/></svg>